<?xml version="1.0" standalone="no"?>
<!DOCTYPE svg PUBLIC "-//W3C//DTD SVG 20010904//EN"
 "http://www.w3.org/TR/2001/REC-SVG-20010904/DTD/svg10.dtd">
<svg version="1.0" xmlns="http://www.w3.org/2000/svg"
 width="512.000000pt" height="512.000000pt" viewBox="0 0 512.000000 512.000000"
 preserveAspectRatio="xMidYMid meet">

<g transform="translate(0.000000,512.000000) scale(0.100000,-0.100000)"
fill="#ffffff" stroke="none">
<path d="M2315 5109 c-885 -91 -1660 -630 -2050 -1424 -89 -182 -142 -324
-188 -510 -58 -232 -71 -349 -71 -615 0 -271 13 -386 74 -626 49 -192 93 -312
186 -500 324 -663 933 -1161 1647 -1349 233 -61 371 -78 637 -79 239 -1 321 6
515 45 388 78 764 253 1084 507 117 92 313 287 405 402 164 205 324 487 411
724 48 130 108 370 131 521 22 148 26 532 6 670 -85 594 -323 1076 -737 1490
-400 401 -878 643 -1445 730 -126 19 -477 28 -605 14z m567 -312 c43 -8 80
-15 82 -18 2 -2 -55 -47 -126 -99 -72 -52 -164 -119 -204 -148 l-74 -54 -200
147 c-110 81 -200 150 -200 155 0 4 46 12 103 19 56 6 116 13 132 15 58 8 411
-5 487 -17z m-787 -349 l315 -232 0 -360 0 -361 -331 -248 -331 -249 -347 118
c-190 64 -351 122 -357 128 -6 6 -61 175 -123 374 -102 332 -111 366 -98 385
32 48 185 202 276 278 112 94 263 198 375 260 78 42 284 138 298 139 5 0 150
-104 323 -232z m1335 197 c330 -141 622 -354 841 -611 l71 -84 -122 -367 c-68
-203 -125 -371 -129 -375 -6 -7 -642 -211 -683 -220 -10 -2 -156 101 -357 252
l-341 254 0 361 0 361 157 114 c401 294 478 350 480 350 1 0 38 -16 83 -35z
m-2761 -1221 c60 -196 70 -239 59 -250 -38 -37 -393 -274 -396 -264 -7 21 41
228 83 356 40 123 160 394 174 394 4 0 39 -106 80 -236z m4035 -154 c44 -134
78 -274 91 -380 6 -45 5 -53 -6 -44 -8 6 -97 71 -199 144 -102 73 -189 137
-194 141 -7 6 133 450 152 484 10 17 109 -203 156 -345z m-1828 -275 c248
-185 314 -239 309 -253 -3 -9 -54 -154 -113 -322 l-107 -305 -400 -3 -401 -2
-107 331 c-60 182 -106 333 -104 335 7 8 602 454 605 454 1 0 145 -106 318
-235z m-1573 -162 l348 -118 124 -378 124 -377 -218 -323 -218 -322 -394 -2
-394 -3 -52 88 c-187 313 -306 701 -316 1026 l-2 88 315 219 c173 120 320 219
325 219 6 0 167 -53 358 -117z m3205 -153 l311 -225 -5 -60 c-30 -358 -135
-689 -317 -997 l-52 -88 -400 3 -400 2 -202 330 c-111 182 -202 334 -203 339
0 13 241 699 249 708 12 13 665 218 687 215 11 -1 161 -103 332 -227z m-1311
-1205 c111 -181 202 -336 202 -343 1 -7 -52 -179 -116 -382 l-116 -369 -86
-20 c-184 -43 -298 -55 -521 -55 -224 0 -327 11 -518 55 -75 17 -95 25 -102
43 -5 11 -60 182 -122 379 l-112 357 144 213 c79 116 181 267 227 335 l84 122
417 -2 417 -3 202 -330z m-1689 -703 c40 -129 71 -236 69 -239 -3 -2 -29 8
-59 23 -161 82 -368 230 -513 368 l-90 85 260 -2 260 -2 73 -233z m2607 151
c-101 -96 -272 -227 -385 -295 -101 -61 -200 -110 -200 -100 0 5 6 28 14 53 8
24 42 131 76 237 l61 192 262 0 262 -1 -90 -86z"/>
</g>
</svg>
